# xmcd
#
# Track frame offsets: 
#        150
#        13413
#        25230
#        38179
#        48338
#        60544
#        71963
#        84779
#        93322
#        102741
#        114068
#        126923
#
# Disc length: 1852 seconds
#
# Revision: 0
# Processed by: cddbd v1.5.2PL0 Copyright (c) Steve Scherf et al.
# Submitted via: ExactAudioCopy v1.3
#
DISCID=9d073a0c
DTITLE=Neville Dickie - Back to Boogie
DYEAR=1900
DGENRE=Blues
TTITLE0=Pinetop's Boogie Woogie
TTITLE1=How Long Blues
TTITLE2=St. Louis Blues
TTITLE3=Bad Penny Blues
TTITLE4=Honky Tonk Train Blues
TTITLE5=Honky Tonk
TTITLE6=Back to Boogie
TTITLE7=Boogie Woogie Blues
TTITLE8=Barrelhouse Boogie
TTITLE9=Swanee River Boogie
TTITLE10=Hamp's Boogie Woogie
TTITLE11=Roll 'em Pete
EXTD=
EXTT0=
EXTT1=
EXTT2=
EXTT3=
EXTT4=
EXTT5=
EXTT6=
EXTT7=
EXTT8=
EXTT9=
EXTT10=
EXTT11=
PLAYORDER=
